# xmcd CD database file
#
# Track frame offsets:
#	150
#	16762
#	30135
#	45662
#	63632
#	81832
#	101842
#	116642
#	137722
#	154395
#	170240
#	194512
#
# Disc length: 3052 seconds
#
# Revision: 0
# Processed by: cddbd v1.5.1PL0 Copyright (c) Steve Scherf et al.
# Submitted via: CDex 1.51
#
DISCID=a20bea0c
DTITLE=Kajsa Grytt - Revolution
DYEAR=1900
DGENRE=Svenskt
TTITLE0=Jag faller ner
TTITLE1=Farlig för mig
TTITLE2=En fråga
TTITLE3=I ditt regn
TTITLE4=Visa hur man älskar
TTITLE5=Bakom allt
TTITLE6=Eld
TTITLE7=Din hemlighet
TTITLE8=Solen i dig
TTITLE9=Mörkret and Sanningen
TTITLE10=Bara vara här
TTITLE11=Revolution
EXTD=
EXTT0=
EXTT1=
EXTT2=
EXTT3=
EXTT4=
EXTT5=
EXTT6=
EXTT7=
EXTT8=
EXTT9=
EXTT10=
EXTT11=
PLAYORDER=
